<svg width="100%" height="100%" viewBox="0 0 534 534" version="1.1" xmlns="http://www.w3.org/2000/svg" xmlns:xlink="http://www.w3.org/1999/xlink" xml:space="preserve" xmlns:serif="http://www.serif.com/" style="fill-rule:evenodd;clip-rule:evenodd;stroke-linejoin:round;stroke-miterlimit:2;">
    <g transform="matrix(0.666667,0,0,0.666667,0,0)">
        <g transform="matrix(0.851179,-0.353184,0.353184,0.851179,-344.214,42.6909)">
            <path d="M557.824,229.76C583.107,219.287 611.515,219.287 636.798,229.76C698.544,255.336 817.262,304.511 879.008,330.087C904.292,340.559 924.379,360.647 934.852,385.93C960.428,447.676 1009.6,566.394 1035.18,628.14C1045.65,653.423 1045.65,681.831 1035.18,707.114C1009.6,768.86 960.428,887.578 934.852,949.324C924.379,974.607 904.292,994.695 879.008,1005.17C817.262,1030.74 698.544,1079.92 636.798,1105.49C611.515,1115.97 583.107,1115.97 557.824,1105.49C496.078,1079.92 377.36,1030.74 315.614,1005.17C290.331,994.695 270.243,974.607 259.771,949.324C234.195,887.578 185.02,768.86 159.444,707.114C148.971,681.831 148.971,653.423 159.444,628.14C185.02,566.394 234.195,447.676 259.771,385.93C270.243,360.647 290.331,340.559 315.614,330.087C377.36,304.511 496.078,255.336 557.824,229.76Z" style="fill:rgb(237,237,237);"/>
        </g>
        <g transform="matrix(0.686376,0,0,0.686376,-3.32043,-3.32043)">
            <path d="M360.242,713.226C420.99,702.233 465.167,649.344 465.167,587.609C465.167,525.874 420.99,472.985 360.242,461.992C319.483,454.616 288.594,418.864 288.594,375.993C288.594,327.756 327.756,288.594 375.993,288.594C418.864,288.594 454.616,319.483 461.992,360.242C472.985,420.99 525.874,465.167 587.609,465.167C649.344,465.167 702.233,420.99 713.226,360.242C720.602,319.483 756.354,288.594 799.225,288.594C847.462,288.594 886.624,327.756 886.624,375.993C886.624,418.864 855.735,454.616 814.976,461.992C754.228,472.985 710.051,525.874 710.051,587.609C710.051,649.344 754.228,702.233 814.976,713.226C855.735,720.602 886.624,756.354 886.624,799.225C886.624,847.462 847.462,886.624 799.225,886.624C756.354,886.624 720.602,855.735 713.226,814.976C702.233,754.228 649.344,710.051 587.609,710.051C525.874,710.051 472.985,754.228 461.992,814.976C454.616,855.735 418.864,886.624 375.993,886.624C327.756,886.624 288.594,847.462 288.594,799.225C288.594,756.354 319.483,720.602 360.242,713.226Z" style="fill:rgb(26,26,26);"/>
        </g>
        <g transform="matrix(1.09589,0,0,1.09589,-237.981,-226.287)">
            <circle cx="582.156" cy="571.485" r="58.176" style="fill:rgb(237,237,237);"/>
        </g>
    </g>
</svg>
